<mxfile host="app.diagrams.net" modified="2023-09-09T15:53:02.338Z" agent="Mozilla/5.0 (Macintosh; Intel Mac OS X 10_15_7) AppleWebKit/605.1.15 (KHTML, like Gecko) Version/16.6 Safari/605.1.15" version="21.7.2" etag="_shO4B1AeJ8Fc9dDC2uh" type="github">
  <diagram name="페이지-1" id="mm8o3VpNPPA1__AOJH6D">
    <mxGraphModel>
      <root>
        <mxCell id="0" />
        <mxCell id="1" parent="0" />
      </root>
    </mxGraphModel>
  </diagram>
</mxfile>
